<mxfile host="app.diagrams.net" modified="2024-02-28T16:22:12.503Z" agent="Mozilla/5.0 (Windows NT 10.0; Win64; x64) AppleWebKit/537.36 (KHTML, like Gecko) Chrome/122.0.0.0 Safari/537.36" etag="3q4iGUqtQ3uekZnz1q6D" version="23.1.7" type="github">
  <diagram id="C5RBs43oDa-KdzZeNtuy" name="Page-1">
    <mxGraphModel dx="1050" dy="522" grid="1" gridSize="10" guides="1" tooltips="1" connect="1" arrows="1" fold="1" page="1" pageScale="1" pageWidth="827" pageHeight="1169" math="0" shadow="0">
      <root>
        <mxCell id="WIyWlLk6GJQsqaUBKTNV-0" />
        <mxCell id="WIyWlLk6GJQsqaUBKTNV-1" parent="WIyWlLk6GJQsqaUBKTNV-0" />
        <mxCell id="AGDgAh6euyIy4jvkdhP6-1" value="&lt;h2&gt;&lt;font face=&quot;Comic Sans MS&quot;&gt;Homepage&lt;/font&gt;&lt;/h2&gt;" style="rounded=1;whiteSpace=wrap;html=1;fillColor=#fff2cc;strokeColor=#d6b656;gradientColor=#ffd966;" vertex="1" parent="WIyWlLk6GJQsqaUBKTNV-1">
          <mxGeometry x="40" y="100" width="120" height="60" as="geometry" />
        </mxCell>
        <mxCell id="AGDgAh6euyIy4jvkdhP6-10" value="" style="edgeStyle=orthogonalEdgeStyle;rounded=0;orthogonalLoop=1;jettySize=auto;html=1;" edge="1" parent="WIyWlLk6GJQsqaUBKTNV-1" source="AGDgAh6euyIy4jvkdhP6-2" target="AGDgAh6euyIy4jvkdhP6-9">
          <mxGeometry relative="1" as="geometry" />
        </mxCell>
        <mxCell id="AGDgAh6euyIy4jvkdhP6-2" value="&lt;h2&gt;&lt;font face=&quot;Comic Sans MS&quot;&gt;User Authentication and Profile&lt;/font&gt;&lt;br&gt;&lt;/h2&gt;" style="rounded=1;whiteSpace=wrap;html=1;fillColor=#fff2cc;gradientColor=#ffd966;strokeColor=#d6b656;" vertex="1" parent="WIyWlLk6GJQsqaUBKTNV-1">
          <mxGeometry x="210" y="90" width="140" height="80" as="geometry" />
        </mxCell>
        <mxCell id="AGDgAh6euyIy4jvkdhP6-13" value="" style="edgeStyle=orthogonalEdgeStyle;rounded=0;orthogonalLoop=1;jettySize=auto;html=1;" edge="1" parent="WIyWlLk6GJQsqaUBKTNV-1" source="AGDgAh6euyIy4jvkdhP6-9" target="AGDgAh6euyIy4jvkdhP6-12">
          <mxGeometry relative="1" as="geometry" />
        </mxCell>
        <mxCell id="AGDgAh6euyIy4jvkdhP6-9" value="&lt;h2&gt;&lt;font face=&quot;Comic Sans MS&quot;&gt;Dashboard&lt;/font&gt;&lt;br&gt;&lt;/h2&gt;" style="rounded=1;whiteSpace=wrap;html=1;fillColor=#dae8fc;strokeColor=#6c8ebf;gradientColor=#7ea6e0;" vertex="1" parent="WIyWlLk6GJQsqaUBKTNV-1">
          <mxGeometry x="400" y="90" width="140" height="80" as="geometry" />
        </mxCell>
        <mxCell id="AGDgAh6euyIy4jvkdhP6-11" value="" style="endArrow=classic;html=1;rounded=0;entryX=0;entryY=0.5;entryDx=0;entryDy=0;exitX=1;exitY=0.5;exitDx=0;exitDy=0;" edge="1" parent="WIyWlLk6GJQsqaUBKTNV-1" source="AGDgAh6euyIy4jvkdhP6-1" target="AGDgAh6euyIy4jvkdhP6-2">
          <mxGeometry width="50" height="50" relative="1" as="geometry">
            <mxPoint x="160" y="155" as="sourcePoint" />
            <mxPoint x="210" y="105" as="targetPoint" />
          </mxGeometry>
        </mxCell>
        <mxCell id="AGDgAh6euyIy4jvkdhP6-16" value="" style="edgeStyle=orthogonalEdgeStyle;rounded=0;orthogonalLoop=1;jettySize=auto;html=1;" edge="1" parent="WIyWlLk6GJQsqaUBKTNV-1" source="AGDgAh6euyIy4jvkdhP6-12" target="AGDgAh6euyIy4jvkdhP6-15">
          <mxGeometry relative="1" as="geometry" />
        </mxCell>
        <mxCell id="AGDgAh6euyIy4jvkdhP6-12" value="&lt;h2&gt;&lt;font face=&quot;Comic Sans MS&quot;&gt;Accommodation Listings&lt;/font&gt;&lt;br&gt;&lt;/h2&gt;" style="rounded=1;whiteSpace=wrap;html=1;fillColor=#f8cecc;gradientColor=#ea6b66;strokeColor=#b85450;" vertex="1" parent="WIyWlLk6GJQsqaUBKTNV-1">
          <mxGeometry x="590" y="90" width="140" height="80" as="geometry" />
        </mxCell>
        <mxCell id="AGDgAh6euyIy4jvkdhP6-18" value="" style="edgeStyle=orthogonalEdgeStyle;rounded=0;orthogonalLoop=1;jettySize=auto;html=1;" edge="1" parent="WIyWlLk6GJQsqaUBKTNV-1" source="AGDgAh6euyIy4jvkdhP6-15" target="AGDgAh6euyIy4jvkdhP6-17">
          <mxGeometry relative="1" as="geometry" />
        </mxCell>
        <mxCell id="AGDgAh6euyIy4jvkdhP6-15" value="&lt;h2&gt;&lt;font face=&quot;Comic Sans MS&quot;&gt;Communication&lt;/font&gt;&lt;/h2&gt;&lt;div&gt;&lt;br&gt;&lt;/div&gt;" style="rounded=1;whiteSpace=wrap;html=1;fillColor=#f8cecc;gradientColor=#ea6b66;strokeColor=#b85450;" vertex="1" parent="WIyWlLk6GJQsqaUBKTNV-1">
          <mxGeometry x="590" y="220" width="140" height="60" as="geometry" />
        </mxCell>
        <mxCell id="AGDgAh6euyIy4jvkdhP6-20" value="" style="edgeStyle=orthogonalEdgeStyle;rounded=0;orthogonalLoop=1;jettySize=auto;html=1;" edge="1" parent="WIyWlLk6GJQsqaUBKTNV-1" source="AGDgAh6euyIy4jvkdhP6-17" target="AGDgAh6euyIy4jvkdhP6-19">
          <mxGeometry relative="1" as="geometry" />
        </mxCell>
        <mxCell id="AGDgAh6euyIy4jvkdhP6-17" value="&lt;h2&gt;&lt;font face=&quot;Comic Sans MS&quot;&gt;Reviews and Ratings&lt;/font&gt;&lt;br&gt;&lt;/h2&gt;" style="rounded=1;whiteSpace=wrap;html=1;fillColor=#d5e8d4;gradientColor=#97d077;strokeColor=#82b366;" vertex="1" parent="WIyWlLk6GJQsqaUBKTNV-1">
          <mxGeometry x="400" y="220" width="140" height="60" as="geometry" />
        </mxCell>
        <mxCell id="AGDgAh6euyIy4jvkdhP6-22" value="" style="edgeStyle=orthogonalEdgeStyle;rounded=0;orthogonalLoop=1;jettySize=auto;html=1;" edge="1" parent="WIyWlLk6GJQsqaUBKTNV-1" source="AGDgAh6euyIy4jvkdhP6-19" target="AGDgAh6euyIy4jvkdhP6-21">
          <mxGeometry relative="1" as="geometry" />
        </mxCell>
        <mxCell id="AGDgAh6euyIy4jvkdhP6-19" value="&lt;h2&gt;&lt;font face=&quot;Comic Sans MS&quot;&gt;Resources and Guide&lt;/font&gt;&lt;br&gt;&lt;/h2&gt;" style="rounded=1;whiteSpace=wrap;html=1;fillColor=#d5e8d4;gradientColor=#97d077;strokeColor=#82b366;" vertex="1" parent="WIyWlLk6GJQsqaUBKTNV-1">
          <mxGeometry x="210" y="220" width="140" height="60" as="geometry" />
        </mxCell>
        <mxCell id="AGDgAh6euyIy4jvkdhP6-21" value="&lt;h2&gt;&lt;font face=&quot;Comic Sans MS&quot;&gt;Footer&lt;/font&gt;&lt;br&gt;&lt;/h2&gt;" style="rounded=1;whiteSpace=wrap;html=1;fillColor=#fff2cc;gradientColor=#ffd966;strokeColor=#d6b656;" vertex="1" parent="WIyWlLk6GJQsqaUBKTNV-1">
          <mxGeometry x="40" y="220" width="120" height="60" as="geometry" />
        </mxCell>
      </root>
    </mxGraphModel>
  </diagram>
</mxfile>
